<svg width="160" height="160" viewBox="0 0 160 160" xmlns="http://www.w3.org/2000/svg">
  <rect width="160" height="160" rx="36" fill="#12090C"/>

  <circle cx="80" cy="80" r="64" fill="none" stroke="#1E1020" stroke-width="1"/>
  <circle cx="80" cy="80" r="48" fill="none" stroke="#1E1020" stroke-width="1"/>
  <circle cx="80" cy="80" r="32" fill="none" stroke="#221428" stroke-width="1"/>
  <circle cx="80" cy="80" r="16" fill="none" stroke="#2A1830" stroke-width="1"/>

  <line x1="80" y1="16" x2="80" y2="80" stroke="#1A0E18" stroke-width="0.8"/>
  <line x1="80" y1="80" x2="144" y2="80" stroke="#1A0E18" stroke-width="0.8"/>
  <line x1="26" y1="26" x2="80" y2="80" stroke="#1A0E18" stroke-width="0.8" opacity="0.5"/>
  <line x1="80" y1="80" x2="134" y2="134" stroke="#1A0E18" stroke-width="0.8" opacity="0.5"/>

  <path d="M80 16 A64 64 0 0 1 144 80" fill="none" stroke="#E10600" stroke-width="5" stroke-linecap="round"/>
  <path d="M80 32 A48 48 0 0 1 128 80" fill="none" stroke="#7C6BFF" stroke-width="4" stroke-linecap="round"/>
  <path d="M80 48 A32 32 0 0 1 112 80" fill="none" stroke="#1D9E75" stroke-width="3.5" stroke-linecap="round"/>
  <path d="M80 64 A16 16 0 0 1 96 80" fill="none" stroke="#C94A2B" stroke-width="3" stroke-linecap="round"/>

  <circle cx="144" cy="80" r="4" fill="#E10600"/>
  <circle cx="128" cy="80" r="3.5" fill="#7C6BFF"/>
  <circle cx="112" cy="80" r="3" fill="#1D9E75"/>
  <circle cx="96" cy="80" r="2.5" fill="#C94A2B"/>
  <circle cx="80" cy="16" r="3" fill="#E10600" opacity="0.5"/>

  <circle cx="80" cy="80" r="9" fill="#1A0A10"/>
  <circle cx="80" cy="80" r="9" fill="none" stroke="#C94A2B" stroke-width="1.5"/>
  <circle cx="80" cy="80" r="4" fill="#C94A2B"/>
  <circle cx="80" cy="80" r="1.8" fill="#FFF8F6"/>

  <circle cx="26" cy="134" r="2" fill="#FFD700" opacity="0.4"/>
  <circle cx="44" cy="116" r="1.5" fill="#FFD700" opacity="0.3"/>
  <circle cx="134" cy="26" r="2" fill="#FFFFFF" opacity="0.15"/>
</svg>
